<svg width="16" height="16" viewBox="0 0 16 16" fill="none" xmlns="http://www.w3.org/2000/svg">
<path fill-rule="evenodd" clip-rule="evenodd" d="M7.64663 4.64604C7.69308 4.59948 7.74825 4.56253 7.809 4.53733C7.86974 4.51212 7.93486 4.49915 8.00063 4.49915C8.0664 4.49915 8.13152 4.51212 8.19227 4.53733C8.25301 4.56253 8.30819 4.59948 8.35463 4.64604L14.3546 10.646C14.4485 10.7399 14.5013 10.8673 14.5013 11C14.5013 11.1328 14.4485 11.2602 14.3546 11.354C14.2607 11.4479 14.1334 11.5007 14.0006 11.5007C13.8679 11.5007 13.7405 11.4479 13.6466 11.354L8.00063 5.70704L2.35463 11.354C2.26075 11.4479 2.13341 11.5007 2.00063 11.5007C1.86786 11.5007 1.74052 11.4479 1.64663 11.354C1.55274 11.2602 1.5 11.1328 1.5 11C1.5 10.8673 1.55274 10.7399 1.64663 10.646L7.64663 4.64604Z" fill="#757575"/>
</svg>
