<svg width="20" height="21" viewBox="0 0 20 21" fill="none" xmlns="http://www.w3.org/2000/svg">
  <g clip-path="url(#clip0_1379_8117)">
    <path d="M10.0009 6.44238C9.46802 6.44238 8.9404 6.54733 8.44812 6.75124C7.95584 6.95515 7.50855 7.25402 7.13177 7.6308C6.755 8.00757 6.45613 8.45487 6.25222 8.94714C6.04831 9.43942 5.94336 9.96704 5.94336 10.4999C5.94336 11.0327 6.04831 11.5603 6.25222 12.0526C6.45613 12.5449 6.755 12.9922 7.13177 13.369C7.50855 13.7457 7.95584 14.0446 8.44812 14.2485C8.9404 14.4524 9.46802 14.5574 10.0009 14.5574C11.077 14.5574 12.109 14.1299 12.8699 13.369C13.6309 12.608 14.0584 11.576 14.0584 10.4999C14.0584 9.42377 13.6309 8.39173 12.8699 7.6308C12.109 6.86987 11.077 6.44238 10.0009 6.44238ZM7.19336 10.4999C7.19336 9.75529 7.48915 9.04119 8.01566 8.51468C8.54217 7.98817 9.25626 7.69238 10.0009 7.69238C10.7455 7.69238 11.4596 7.98817 11.9861 8.51468C12.5126 9.04119 12.8084 9.75529 12.8084 10.4999C12.8084 11.2445 12.5126 11.9586 11.9861 12.4851C11.4596 13.0116 10.7455 13.3074 10.0009 13.3074C9.25626 13.3074 8.54217 13.0116 8.01566 12.4851C7.48915 11.9586 7.19336 11.2445 7.19336 10.4999Z" fill="white"/>
    <path d="M12.2444 2.1791C11.5856 -0.0583984 8.41313 -0.0583984 7.75437 2.1791L7.63688 2.57785C7.59087 2.73404 7.5105 2.87796 7.40165 2.99905C7.29279 3.12014 7.15823 3.21534 7.0078 3.27767C6.85738 3.33999 6.69491 3.36787 6.53232 3.35925C6.36972 3.35063 6.21112 3.30573 6.06812 3.22785L5.70312 3.02785C3.65313 1.91285 1.41188 4.15535 2.52813 6.2041L2.72687 6.5691C2.80476 6.71209 2.84965 6.8707 2.85827 7.03329C2.86689 7.19589 2.83902 7.35835 2.77669 7.50878C2.71436 7.6592 2.61916 7.79377 2.49807 7.90262C2.37698 8.01147 2.23307 8.09185 2.07687 8.13785L1.67812 8.25535C-0.559375 8.9141 -0.559375 12.0866 1.67812 12.7454L2.07687 12.8629C2.23307 12.9089 2.37698 12.9892 2.49807 13.0981C2.61916 13.2069 2.71436 13.3415 2.77669 13.4919C2.83902 13.6423 2.86689 13.8048 2.85827 13.9674C2.84965 14.13 2.80476 14.2886 2.72687 14.4316L2.52688 14.7966C1.41188 16.8466 3.65313 19.0891 5.70312 17.9716L6.06812 17.7729C6.21112 17.695 6.36972 17.6501 6.53232 17.6415C6.69491 17.6328 6.85738 17.6607 7.0078 17.723C7.15823 17.7854 7.29279 17.8806 7.40165 18.0017C7.5105 18.1227 7.59087 18.2667 7.63688 18.4229L7.75437 18.8216C8.41313 21.0591 11.5856 21.0591 12.2444 18.8216L12.3619 18.4229C12.4079 18.2667 12.4883 18.1227 12.5971 18.0017C12.706 17.8806 12.8405 17.7854 12.9909 17.723C13.1414 17.6607 13.3038 17.6328 13.4664 17.6415C13.629 17.6501 13.7876 17.695 13.9306 17.7729L14.2956 17.9729C16.3456 19.0891 18.5881 16.8454 17.4706 14.7966L17.2719 14.4316C17.194 14.2886 17.1491 14.13 17.1405 13.9674C17.1319 13.8048 17.1597 13.6423 17.2221 13.4919C17.2844 13.3415 17.3796 13.2069 17.5007 13.0981C17.6218 12.9892 17.7657 12.9089 17.9219 12.8629L18.3206 12.7454C20.5581 12.0866 20.5581 8.9141 18.3206 8.25535L17.9219 8.13785C17.7657 8.09185 17.6218 8.01147 17.5007 7.90262C17.3796 7.79377 17.2844 7.6592 17.2221 7.50878C17.1597 7.35835 17.1319 7.19589 17.1405 7.03329C17.1491 6.8707 17.194 6.71209 17.2719 6.5691L17.4719 6.2041C18.5881 4.1541 16.3444 1.91285 14.2956 3.0291L13.9306 3.22785C13.7876 3.30573 13.629 3.35063 13.4664 3.35925C13.3038 3.36787 13.1414 3.33999 12.9909 3.27767C12.8405 3.21534 12.706 3.12014 12.5971 2.99905C12.4883 2.87796 12.4079 2.73404 12.3619 2.57785L12.2444 2.1791ZM8.95312 2.53285C9.26062 1.4891 10.7381 1.4891 11.0456 2.53285L11.1631 2.9316C11.2619 3.26671 11.4344 3.57546 11.668 3.83523C11.9016 4.09499 12.1904 4.29918 12.5132 4.43283C12.836 4.56647 13.1846 4.62619 13.5335 4.60759C13.8823 4.58899 14.2226 4.49256 14.5294 4.32535L14.8931 4.12535C15.8481 3.6066 16.8931 4.65035 16.3731 5.6066L16.1744 5.9716C16.0074 6.27838 15.9112 6.61864 15.8928 6.96742C15.8744 7.31621 15.9343 7.66469 16.0681 7.98733C16.2018 8.30998 16.4061 8.59861 16.6658 8.83207C16.9256 9.06554 17.2343 9.23792 17.5694 9.3366L17.9669 9.4541C19.0106 9.7616 19.0106 11.2391 17.9669 11.5466L17.5681 11.6641C17.233 11.7629 16.9243 11.9354 16.6645 12.169C16.4047 12.4026 16.2005 12.6914 16.0669 13.0142C15.9333 13.337 15.8735 13.6856 15.8921 14.0345C15.9107 14.3833 16.0072 14.7236 16.1744 15.0304L16.3744 15.3941C16.8931 16.3491 15.8494 17.3941 14.8931 16.8741L14.5294 16.6754C14.2225 16.5082 13.8822 16.4118 13.5332 16.3933C13.1843 16.3747 12.8357 16.4346 12.5129 16.5683C12.19 16.7021 11.9013 16.9064 11.6677 17.1663C11.4342 17.4262 11.2618 17.7351 11.1631 18.0704L11.0456 18.4679C10.7381 19.5116 9.26062 19.5116 8.95312 18.4679L8.83562 18.0691C8.73681 17.7342 8.56432 17.4256 8.33079 17.166C8.09726 16.9063 7.80861 16.7022 7.48599 16.5686C7.16336 16.435 6.81493 16.3752 6.46621 16.3937C6.11749 16.4121 5.77733 16.5084 5.47062 16.6754L5.10562 16.8754C4.15062 17.3941 3.10562 16.3504 3.62562 15.3941L3.82437 15.0304C3.99181 14.7236 4.08844 14.3832 4.10716 14.0341C4.12588 13.6851 4.06622 13.3364 3.93255 13.0134C3.79889 12.6905 3.59462 12.4015 3.33472 12.1678C3.07483 11.9341 2.76591 11.7616 2.43062 11.6629L2.03187 11.5454C0.988125 11.2379 0.988125 9.76035 2.03187 9.45285L2.43062 9.33535C2.76538 9.23649 3.0738 9.06403 3.3333 8.83059C3.59281 8.59715 3.79683 8.30864 3.93044 7.98617C4.06405 7.6637 4.12387 7.31544 4.10552 6.96688C4.08717 6.61831 3.99111 6.27825 3.82437 5.9716L3.62437 5.6066C3.10562 4.6516 4.14937 3.6066 5.10562 4.1266L5.47062 4.32535C5.77733 4.49232 6.11749 4.58857 6.46621 4.60704C6.81493 4.62552 7.16336 4.56575 7.48599 4.43212C7.80861 4.29849 8.09726 4.09439 8.33079 3.83475C8.56432 3.57512 8.73681 3.26653 8.83562 2.9316L8.95312 2.53285Z" fill="white"/>
  </g>
  <defs>
    <clipPath id="clip0_1379_8117">
      <rect width="20" height="20" fill="white" transform="translate(0 0.5)"/>
    </clipPath>
  </defs>
</svg>
