<svg width="20.000000" height="20.000000" viewBox="0 0 20 20" fill="none" xmlns="http://www.w3.org/2000/svg" xmlns:xlink="http://www.w3.org/1999/xlink">
	<desc>
			Created with Pixso.
	</desc>
	<defs>
		<clipPath id="clip6_23621">
			<rect id="Folder2" width="20.000000" height="20.000000" transform="translate(0.000000 -0.500000)" fill="white" fill-opacity="0"/>
		</clipPath>
	</defs>
	<rect id="Folder2" width="20.000000" height="20.000000" transform="translate(0.000000 -0.500000)" fill="#FFFFFF" fill-opacity="0"/>
	<g clip-path="url(#clip6_23621)">
		<path id="Vector" d="M1.25 3.87C1.25 3.37 1.44 2.9 1.79 2.54C2.15 2.19 2.62 2 3.12 2L6.58 2C7.77 2 8.77 2.69 9.46 3.47C9.98 4.06 10.59 4.5 11.25 4.5L16.87 4.5C17.37 4.5 17.84 4.69 18.2 5.04C18.55 5.4 18.75 5.87 18.75 6.37L18.75 15.12C18.75 15.62 18.55 16.09 18.2 16.45C17.84 16.8 17.37 17 16.87 17L3.12 17C2.62 17 2.15 16.8 1.79 16.45C1.44 16.09 1.25 15.62 1.25 15.12L1.25 3.87ZM3.12 3.25C2.95 3.25 2.8 3.31 2.68 3.43C2.56 3.55 2.5 3.7 2.5 3.87L2.5 7L10 7L17.5 7L17.5 6.37C17.5 6.2 17.43 6.05 17.31 5.93C17.19 5.81 17.04 5.75 16.87 5.75L11.25 5.75C10.04 5.75 9.11 4.96 8.53 4.3C7.96 3.66 7.27 3.25 6.58 3.25L3.12 3.25ZM17.5 8.25L2.5 8.25L2.5 15.12C2.5 15.29 2.56 15.44 2.68 15.56C2.8 15.68 2.95 15.75 3.12 15.75L16.87 15.75C17.04 15.75 17.19 15.68 17.31 15.56C17.43 15.44 17.5 15.29 17.5 15.12L17.5 8.25Z" fill="#004548" fill-opacity="1.000000" fill-rule="nonzero"/>
	</g>
</svg>
