<svg width="20.000000" height="20.000000" viewBox="0 0 20 20" fill="none" xmlns="http://www.w3.org/2000/svg" xmlns:xlink="http://www.w3.org/1999/xlink">
	<desc>
			Created with Pixso.
	</desc>
	<defs>
		<clipPath id="clip6_23616">
			<rect id="House" width="20.000000" height="20.000000" transform="translate(0.000000 -0.500000)" fill="white" fill-opacity="0"/>
		</clipPath>
	</defs>
	<rect id="House" width="20.000000" height="20.000000" transform="translate(0.000000 -0.500000)" fill="#FFFFFF" fill-opacity="0"/>
	<g clip-path="url(#clip6_23616)">
		<path id="Vector" d="M10.88 1.37C10.65 1.14 10.33 1 10 1C9.66 1 9.35 1.14 9.11 1.37L0.8 9.68C0.75 9.74 0.7 9.8 0.67 9.88C0.64 9.96 0.62 10.04 0.62 10.12C0.62 10.2 0.64 10.28 0.67 10.36C0.7 10.44 0.75 10.5 0.8 10.56C0.92 10.68 1.08 10.75 1.25 10.75C1.33 10.75 1.41 10.73 1.49 10.7C1.56 10.67 1.63 10.62 1.69 10.56L2.5 9.75L2.5 16.37C2.5 16.87 2.69 17.34 3.05 17.7C3.4 18.05 3.87 18.25 4.37 18.25L15.62 18.25C16.12 18.25 16.59 18.05 16.95 17.7C17.3 17.34 17.5 16.87 17.5 16.37L17.5 9.75L18.3 10.56C18.42 10.68 18.58 10.75 18.75 10.75C18.91 10.75 19.07 10.68 19.19 10.56C19.31 10.45 19.37 10.29 19.37 10.12C19.37 9.95 19.31 9.79 19.19 9.68L16.25 6.74L16.25 2.62C16.25 2.45 16.18 2.3 16.06 2.18C15.95 2.06 15.79 2 15.62 2L14.37 2C14.21 2 14.05 2.06 13.93 2.18C13.81 2.3 13.75 2.45 13.75 2.62L13.75 4.24L10.88 1.37ZM16.25 8.5L16.25 16.37C16.25 16.54 16.18 16.69 16.06 16.81C15.95 16.93 15.79 17 15.62 17L4.37 17C4.21 17 4.05 16.93 3.93 16.81C3.81 16.69 3.75 16.54 3.75 16.37L3.75 8.5L10 2.25L16.25 8.5Z" fill="#FFFFFF" fill-opacity="1.000000" fill-rule="nonzero"/>
	</g>
</svg>
