<svg width="20.000000" height="20.000000" viewBox="0 0 20 20" fill="none" xmlns="http://www.w3.org/2000/svg" xmlns:xlink="http://www.w3.org/1999/xlink">
	<desc>
			Created with Pixso.
	</desc>
	<defs>
		<clipPath id="clip6_23626">
			<rect id="Lightbulb" width="20.000000" height="20.000000" transform="translate(0.000000 -0.500000)" fill="white" fill-opacity="0"/>
		</clipPath>
	</defs>
	<rect id="Lightbulb" width="20.000000" height="20.000000" transform="translate(0.000000 -0.500000)" fill="#FFFFFF" fill-opacity="0"/>
	<g clip-path="url(#clip6_23626)">
		<path id="Vector" d="M2.5 7C2.5 5.76 2.8 4.54 3.39 3.45C3.97 2.36 4.82 1.43 5.85 0.74C6.89 0.06 8.07 -0.36 9.31 -0.47C10.54 -0.59 11.78 -0.39 12.92 0.09C14.06 0.57 15.06 1.33 15.84 2.3C16.62 3.26 17.14 4.4 17.37 5.62C17.59 6.84 17.52 8.09 17.14 9.27C16.76 10.45 16.1 11.52 15.21 12.38C14.96 12.63 14.76 12.88 14.65 13.16L13.69 15.37C13.65 15.48 13.57 15.58 13.46 15.64C13.36 15.71 13.24 15.75 13.12 15.75C13.29 15.75 13.44 15.81 13.56 15.93C13.68 16.05 13.75 16.2 13.75 16.37C13.75 16.54 13.68 16.69 13.56 16.81C13.44 16.93 13.29 17 13.12 17C13.29 17 13.44 17.06 13.56 17.18C13.68 17.3 13.75 17.45 13.75 17.62C13.75 17.79 13.68 17.94 13.56 18.06C13.44 18.18 13.29 18.25 13.12 18.25L12.84 18.8C12.74 19.01 12.58 19.19 12.38 19.31C12.18 19.43 11.95 19.49 11.72 19.5L8.27 19.5C8.04 19.49 7.81 19.43 7.61 19.31C7.41 19.19 7.25 19.01 7.15 18.8L6.87 18.25C6.7 18.25 6.55 18.18 6.43 18.06C6.31 17.94 6.25 17.79 6.25 17.62C6.25 17.45 6.31 17.3 6.43 17.18C6.55 17.06 6.7 17 6.87 17C6.7 17 6.55 16.93 6.43 16.81C6.31 16.69 6.25 16.54 6.25 16.37C6.25 16.2 6.31 16.05 6.43 15.93C6.55 15.81 6.7 15.75 6.87 15.75C6.75 15.75 6.63 15.71 6.53 15.64C6.42 15.58 6.34 15.48 6.3 15.37L5.34 13.16C5.21 12.86 5.01 12.6 4.78 12.38C4.05 11.68 3.48 10.85 3.09 9.92C2.7 9 2.49 8 2.5 7ZM10 0.75C8.75 0.74 7.53 1.12 6.5 1.81C5.47 2.51 4.67 3.5 4.2 4.65C3.73 5.8 3.62 7.07 3.88 8.29C4.14 9.51 4.75 10.62 5.65 11.49C5.98 11.8 6.29 12.19 6.49 12.66L7.28 14.5L12.71 14.5L13.5 12.66C13.7 12.19 14.02 11.8 14.34 11.49C15.24 10.62 15.85 9.51 16.11 8.29C16.37 7.07 16.26 5.8 15.79 4.65C15.32 3.49 14.52 2.51 13.49 1.81C12.46 1.12 11.24 0.74 10 0.75Z" fill="#004548" fill-opacity="1.000000" fill-rule="nonzero"/>
	</g>
</svg>
